<svg width="1920" height="1080" viewBox="0 0 1920 1080" fill="none" xmlns="http://www.w3.org/2000/svg">
  <defs>
    <linearGradient id="bg" x1="240" y1="40" x2="1680" y2="1040" gradientUnits="userSpaceOnUse">
      <stop offset="0" stop-color="#121212"/>
      <stop offset="0.52" stop-color="#0A0A0A"/>
      <stop offset="1" stop-color="#050505"/>
    </linearGradient>
    <radialGradient id="goldBloom" cx="0" cy="0" r="1" gradientUnits="userSpaceOnUse" gradientTransform="translate(320 210) rotate(41) scale(420 320)">
      <stop stop-color="#D4AF37" stop-opacity="0.28"/>
      <stop offset="1" stop-color="#D4AF37" stop-opacity="0"/>
    </radialGradient>
    <radialGradient id="silverBloom" cx="0" cy="0" r="1" gradientUnits="userSpaceOnUse" gradientTransform="translate(1540 260) rotate(140) scale(400 300)">
      <stop stop-color="#C0C0C0" stop-opacity="0.18"/>
      <stop offset="1" stop-color="#C0C0C0" stop-opacity="0"/>
    </radialGradient>
    <linearGradient id="goldMetal" x1="0" y1="0" x2="1" y2="1">
      <stop offset="0" stop-color="#BF953F"/>
      <stop offset="0.48" stop-color="#FCF6BA"/>
      <stop offset="1" stop-color="#B38728"/>
    </linearGradient>
    <linearGradient id="silverMetal" x1="0" y1="0" x2="1" y2="1">
      <stop offset="0" stop-color="#8E8E8E" stop-opacity="0.82"/>
      <stop offset="0.5" stop-color="#F5F5F5" stop-opacity="0.94"/>
      <stop offset="1" stop-color="#A0A0A0" stop-opacity="0.82"/>
    </linearGradient>
    <linearGradient id="glass" x1="0" y1="0" x2="0" y2="1">
      <stop offset="0" stop-color="#1A1A1A" stop-opacity="0.9"/>
      <stop offset="1" stop-color="#141414" stop-opacity="0.76"/>
    </linearGradient>
    <linearGradient id="glassSoft" x1="0" y1="0" x2="0" y2="1">
      <stop offset="0" stop-color="#202020" stop-opacity="0.88"/>
      <stop offset="1" stop-color="#141414" stop-opacity="0.7"/>
    </linearGradient>
    <filter id="shadowLg" x="-20%" y="-20%" width="140%" height="140%">
      <feDropShadow dx="0" dy="22" stdDeviation="22" flood-color="#000000" flood-opacity="0.34"/>
    </filter>
    <filter id="shadowMd" x="-20%" y="-20%" width="140%" height="140%">
      <feDropShadow dx="0" dy="14" stdDeviation="14" flood-color="#000000" flood-opacity="0.28"/>
    </filter>
    <filter id="goldGlow" x="-50%" y="-50%" width="200%" height="200%">
      <feDropShadow dx="0" dy="0" stdDeviation="10" flood-color="#D4AF37" flood-opacity="0.18"/>
    </filter>
    <clipPath id="webClip">
      <rect x="120" y="120" width="1160" height="760" rx="36"/>
    </clipPath>
    <clipPath id="mobileClip">
      <rect x="1390" y="140" width="360" height="760" rx="54"/>
    </clipPath>
  </defs>

  <rect width="1920" height="1080" fill="url(#bg)"/>
  <rect width="1920" height="1080" fill="url(#goldBloom)"/>
  <rect width="1920" height="1080" fill="url(#silverBloom)"/>

  <text x="120" y="74" fill="#F5F5F5" font-size="28" font-family="Georgia, 'Times New Roman', serif" letter-spacing="7">RESTO 001 LUXE SYSTEM</text>
  <text x="120" y="104" fill="#A0A0A0" font-size="16" font-family="Inter, Arial, sans-serif" letter-spacing="1.5">Administrador, Caja, Cocina y Mobile bajo una sola piel visual de Obsidiana, Oro y Plata</text>

  <g filter="url(#shadowLg)">
    <rect x="120" y="120" width="1160" height="760" rx="36" fill="#0E0E0E" stroke="rgba(192,192,192,0.18)" stroke-width="1"/>
  </g>

  <g clip-path="url(#webClip)">
    <rect x="120" y="120" width="1160" height="760" rx="36" fill="url(#glass)"/>
    <rect x="120" y="120" width="1160" height="760" rx="36" fill="url(#goldBloom)" opacity="0.35"/>

    <rect x="150" y="150" width="236" height="700" rx="28" fill="#171717" fill-opacity="0.82" stroke="#C0C0C0" stroke-opacity="0.18" stroke-width="1"/>
    <rect x="150" y="150" width="236" height="700" rx="28" fill="url(#glassSoft)"/>
    <text x="184" y="202" fill="#F5F5F5" font-size="24" font-family="Georgia, serif" letter-spacing="3">Resto 001</text>
    <text x="184" y="226" fill="#8E8E8E" font-size="12" font-family="Inter, Arial, sans-serif" letter-spacing="2">ADMINISTRADOR</text>

    <rect x="174" y="278" width="188" height="56" rx="18" fill="url(#goldMetal)" filter="url(#goldGlow)"/>
    <text x="214" y="313" fill="#1A1A1A" font-size="18" font-family="Inter, Arial, sans-serif" font-weight="700" letter-spacing="0.8">Dashboard</text>

    <g fill="#C0C0C0" fill-opacity="0.94" font-size="17" font-family="Inter, Arial, sans-serif">
      <text x="214" y="387">Gestión de Menú</text>
      <text x="214" y="439">Usuarios</text>
      <text x="214" y="491">Reportes</text>
      <text x="214" y="543">Ajustes</text>
    </g>
    <g stroke="url(#silverMetal)" stroke-width="1.2" stroke-linecap="round">
      <path d="M186 380H202"/>
      <path d="M186 432H202"/>
      <path d="M186 484H202"/>
      <path d="M186 536H202"/>
    </g>

    <text x="426" y="194" fill="#F5F0E6" font-size="44" font-family="Georgia, serif" letter-spacing="3.2">Operational Overview</text>
    <text x="428" y="226" fill="#A0A0A0" font-size="15" font-family="Inter, Arial, sans-serif" letter-spacing="1">Dashboard Bento Grid con lujo técnico y precisión operativa</text>

    <rect x="426" y="264" width="258" height="132" rx="24" fill="url(#glassSoft)" stroke="#C0C0C0" stroke-opacity="0.16"/>
    <rect x="702" y="264" width="258" height="132" rx="24" fill="url(#glassSoft)" stroke="#C0C0C0" stroke-opacity="0.16"/>
    <rect x="978" y="264" width="258" height="132" rx="24" fill="url(#glassSoft)" stroke="#C0C0C0" stroke-opacity="0.16"/>

    <g font-family="Inter, Arial, sans-serif">
      <text x="452" y="304" fill="#8E8E8E" font-size="12" letter-spacing="2">VENTAS</text>
      <text x="452" y="350" fill="#F5F5F5" font-size="34" font-weight="700">$12,480</text>
      <text x="728" y="304" fill="#8E8E8E" font-size="12" letter-spacing="2">ÓRDENES</text>
      <text x="728" y="350" fill="#F5F5F5" font-size="34" font-weight="700">184</text>
      <text x="1004" y="304" fill="#8E8E8E" font-size="12" letter-spacing="2">TICKET PROMEDIO</text>
      <text x="1004" y="350" fill="#F5F5F5" font-size="34" font-weight="700">$67.83</text>
    </g>

    <rect x="426" y="426" width="534" height="224" rx="28" fill="url(#glassSoft)" stroke="#C0C0C0" stroke-opacity="0.16"/>
    <rect x="978" y="426" width="258" height="224" rx="28" fill="url(#glassSoft)" stroke="#C0C0C0" stroke-opacity="0.16"/>
    <text x="454" y="468" fill="#F5F0E6" font-size="24" font-family="Georgia, serif" letter-spacing="2">Ventas & Flujo</text>
    <text x="1006" y="468" fill="#F5F0E6" font-size="24" font-family="Georgia, serif" letter-spacing="2">Tasas</text>

    <path d="M460 578C510 548 560 590 614 534C670 475 722 518 774 500C823 483 860 446 920 470" stroke="url(#goldMetal)" stroke-width="4.5" stroke-linecap="round" filter="url(#goldGlow)"/>
    <path d="M460 592H920" stroke="#C0C0C0" stroke-opacity="0.12"/>
    <path d="M460 554H920" stroke="#C0C0C0" stroke-opacity="0.08"/>
    <path d="M460 516H920" stroke="#C0C0C0" stroke-opacity="0.08"/>

    <rect x="1006" y="496" width="202" height="48" rx="17" fill="url(#goldMetal)" stroke="url(#silverMetal)" stroke-width="0.8"/>
    <rect x="1006" y="558" width="202" height="48" rx="17" fill="url(#goldMetal)" stroke="url(#silverMetal)" stroke-width="0.8"/>
    <text x="1030" y="525" fill="#1A1A1A" font-size="14" font-family="Inter, Arial, sans-serif" font-weight="700" letter-spacing="1.1">BCV · 39.42</text>
    <text x="1030" y="587" fill="#1A1A1A" font-size="14" font-family="Inter, Arial, sans-serif" font-weight="700" letter-spacing="1.1">COP · 152.80</text>

    <rect x="426" y="678" width="810" height="148" rx="28" fill="url(#glassSoft)" stroke="#C0C0C0" stroke-opacity="0.16"/>
    <text x="454" y="720" fill="#F5F0E6" font-size="24" font-family="Georgia, serif" letter-spacing="2">Transacciones</text>
    <g font-family="Inter, Arial, sans-serif" font-size="13">
      <text x="454" y="754" fill="#8E8E8E" letter-spacing="1.4">MESA</text>
      <text x="622" y="754" fill="#8E8E8E" letter-spacing="1.4">CLIENTE</text>
      <text x="858" y="754" fill="#8E8E8E" letter-spacing="1.4">ESTADO</text>
      <text x="1060" y="754" fill="#8E8E8E" letter-spacing="1.4">TOTAL</text>
    </g>
    <path d="M452 770H1210" stroke="#C0C0C0" stroke-opacity="0.14"/>
    <rect x="446" y="782" width="776" height="34" rx="12" fill="#C0C0C0" fill-opacity="0.04"/>
    <rect x="464" y="789" width="88" height="20" rx="10" fill="#D4AF37" fill-opacity="0.12"/>
    <text x="484" y="804" fill="#E7D7AA" font-size="12" font-family="Inter, Arial, sans-serif" font-weight="700" letter-spacing="1">Mesa 1</text>
    <text x="622" y="804" fill="#F5F5F5" font-size="14" font-family="Inter, Arial, sans-serif">Reserva Prato</text>
    <text x="858" y="804" fill="#C0C0C0" font-size="14" font-family="Inter, Arial, sans-serif">Entregado</text>
    <text x="1060" y="804" fill="#F5F5F5" font-size="14" font-family="Inter, Arial, sans-serif" font-weight="700">$128.40</text>
  </g>

  <g filter="url(#shadowLg)">
    <rect x="1390" y="140" width="360" height="760" rx="54" fill="#0D0D0D" stroke="#C0C0C0" stroke-opacity="0.18" stroke-width="1"/>
  </g>
  <g clip-path="url(#mobileClip)">
    <rect x="1390" y="140" width="360" height="760" rx="54" fill="#0A0A0A"/>
    <rect x="1390" y="140" width="360" height="760" rx="54" fill="url(#goldBloom)" opacity="0.2"/>

    <text x="1430" y="205" fill="#D4AF37" font-size="11" font-family="Inter, Arial, sans-serif" font-weight="700" letter-spacing="4">RESTO 001</text>
    <text x="1430" y="248" fill="#F5F0E6" font-size="34" font-family="Georgia, serif" letter-spacing="2.4">Mesonero</text>
    <rect x="1430" y="272" width="162" height="34" rx="17" fill="#181818" stroke="#C0C0C0" stroke-opacity="0.28" stroke-width="0.8"/>
    <text x="1460" y="294" fill="#D6D6D6" font-size="13" font-family="Inter, Arial, sans-serif">Enlazado con caja</text>

    <rect x="1430" y="334" width="94" height="42" rx="15" fill="url(#goldMetal)"/>
    <rect x="1538" y="334" width="94" height="42" rx="15" fill="#1A1A1A" stroke="#C0C0C0" stroke-opacity="0.32" stroke-width="0.8"/>
    <rect x="1646" y="334" width="74" height="42" rx="15" fill="#1A1A1A" stroke="#C0C0C0" stroke-opacity="0.32" stroke-width="0.8"/>
    <text x="1465" y="360" fill="#1A1A1A" font-size="14" font-family="Inter, Arial, sans-serif" font-weight="800">Paso 1</text>
    <text x="1572" y="360" fill="#F5F5F5" font-size="14" font-family="Inter, Arial, sans-serif" font-weight="700">Paso 2</text>
    <text x="1667" y="360" fill="#F5F5F5" font-size="14" font-family="Inter, Arial, sans-serif" font-weight="700">Paso 3</text>

    <rect x="1430" y="404" width="280" height="206" rx="28" fill="url(#glassSoft)" stroke="#C0C0C0" stroke-opacity="0.18" stroke-width="0.8"/>
    <text x="1456" y="448" fill="#F5F0E6" font-size="24" font-family="Georgia, serif" letter-spacing="1.8">1. Selección de mesa</text>
    <text x="1456" y="474" fill="#A0A0A0" font-size="13" font-family="Inter, Arial, sans-serif">Zona, estado y asignación inmediata</text>

    <rect x="1456" y="496" width="116" height="38" rx="14" fill="#1A1A1A" stroke="url(#silverMetal)" stroke-width="0.8"/>
    <rect x="1584" y="496" width="116" height="38" rx="14" fill="url(#goldMetal)" stroke="url(#silverMetal)" stroke-width="0.8"/>
    <text x="1480" y="520" fill="#F5F5F5" font-size="12" font-family="Inter, Arial, sans-serif" font-weight="700" letter-spacing="1">SALA</text>
    <text x="1614" y="520" fill="#1A1A1A" font-size="12" font-family="Inter, Arial, sans-serif" font-weight="800" letter-spacing="1">TERRAZA</text>

    <rect x="1456" y="550" width="112" height="44" rx="16" fill="#1A1A1A" stroke="#C0C0C0" stroke-opacity="0.18" stroke-width="0.8"/>
    <rect x="1584" y="550" width="116" height="44" rx="16" fill="url(#goldMetal)" filter="url(#goldGlow)"/>
    <text x="1489" y="578" fill="#F5F5F5" font-size="15" font-family="Georgia, serif" font-weight="700">Mesa 4</text>
    <text x="1613" y="578" fill="#1A1A1A" font-size="15" font-family="Georgia, serif" font-weight="800">Mesa 1</text>
    <circle cx="1681" cy="566" r="7" fill="url(#silverMetal)"/>

    <rect x="1430" y="636" width="280" height="202" rx="28" fill="url(#glassSoft)" stroke="#C0C0C0" stroke-opacity="0.18" stroke-width="0.8"/>
    <text x="1456" y="678" fill="#F5F0E6" font-size="24" font-family="Georgia, serif" letter-spacing="1.8">Pedido actual</text>
    <text x="1456" y="704" fill="#C0C0C0" font-size="13" font-family="Inter, Arial, sans-serif">Mesa 1 · 3 platos agregados</text>
    <path d="M1456 724H1684" stroke="#C0C0C0" stroke-opacity="0.14"/>
    <text x="1456" y="752" fill="#F5F5F5" font-size="14" font-family="Inter, Arial, sans-serif">2 x Pasta al trufado</text>
    <text x="1630" y="752" fill="#D4AF37" font-size="14" font-family="Inter, Arial, sans-serif" font-weight="700">$42</text>
    <text x="1456" y="780" fill="#D6D6D6" font-size="12" font-family="Inter, Arial, sans-serif">Sin queso · rápido</text>
    <rect x="1456" y="796" width="228" height="18" rx="9" fill="url(#goldMetal)"/>
  </g>

  <text x="1390" y="932" fill="#F5F5F5" font-size="20" font-family="Georgia, serif" letter-spacing="2">Una misma identidad visual para operación, control y servicio</text>
  <text x="1390" y="960" fill="#8E8E8E" font-size="14" font-family="Inter, Arial, sans-serif">Oro Pulido 24k, Plata Satinada y Obsidiana Profunda con claridad táctil y sofisticación operativa</text>
</svg>